HIERARCHY
ROOT joint_Root
{
	OFFSET 0.0 0.0 0.0
	CHANNELS 6 Xposition Yposition Zposition Zrotation Xrotation Yrotation 
	JOINT Hips
	{
		OFFSET -17.1583 93.1646 452.98
		CHANNELS 6 Xposition Yposition Zposition Zrotation Xrotation Yrotation 
		JOINT Spine
		{
			OFFSET 15.7357 0.0 0.0
			CHANNELS 6 Xposition Yposition Zposition Zrotation Xrotation Yrotation 
			JOINT Chest
			{
				OFFSET 8.98455 -0.406207 0.0
				CHANNELS 6 Xposition Yposition Zposition Zrotation Xrotation Yrotation 
				JOINT Neck
				{
					OFFSET 16.3773 0.0 0.0
					CHANNELS 6 Xposition Yposition Zposition Zrotation Xrotation Yrotation 
					JOINT Head
					{
						OFFSET 6.45672 0.0 0.0
						CHANNELS 6 Xposition Yposition Zposition Zrotation Xrotation Yrotation 
						End Site
						{
							OFFSET 0.0 0.0 0.0
						}
					}
				}
				JOINT Shoulder_L
				{
					OFFSET 12.9942 -0.242716 4.98039
					CHANNELS 6 Xposition Yposition Zposition Zrotation Xrotation Yrotation 
					JOINT UpperArm_L
					{
						OFFSET 5.34809 0.0 0.0
						CHANNELS 6 Xposition Yposition Zposition Zrotation Xrotation Yrotation 
						JOINT LowerArm_L
						{
							OFFSET 24.3286 1.87007e-05 0.0
							CHANNELS 6 Xposition Yposition Zposition Zrotation Xrotation Yrotation 
							JOINT Hand_L
							{
								OFFSET 22.2916 0.0 0.0
								CHANNELS 6 Xposition Yposition Zposition Zrotation Xrotation Yrotation 
								End Site
								{
									OFFSET 0.0 0.0 0.0
								}
							}
						}
					}
				}
				JOINT Shoulder_R
				{
					OFFSET 12.9945 -0.242716 -4.98039
					CHANNELS 6 Xposition Yposition Zposition Zrotation Xrotation Yrotation 
					JOINT UpperArm_R
					{
						OFFSET -5.34813 0.0 0.0
						CHANNELS 6 Xposition Yposition Zposition Zrotation Xrotation Yrotation 
						JOINT LowerArm_R
						{
							OFFSET -24.3289 0.000322201 0.0
							CHANNELS 6 Xposition Yposition Zposition Zrotation Xrotation Yrotation 
							JOINT Hand_R
							{
								OFFSET -22.2915 -0.000108084 0.0
								CHANNELS 6 Xposition Yposition Zposition Zrotation Xrotation Yrotation 
								End Site
								{
									OFFSET 0.0 0.0 0.0
								}
							}
						}
					}
				}
			}
		}
		JOINT UpperLeg_L
		{
			OFFSET -2.19248 -6.46944 0.0
			CHANNELS 6 Xposition Yposition Zposition Zrotation Xrotation Yrotation 
			JOINT LowerLeg_L
			{
				OFFSET 39.0811 0.0 -1.23785e-05
				CHANNELS 6 Xposition Yposition Zposition Zrotation Xrotation Yrotation 
				JOINT Foot_L
				{
					OFFSET 40.9854 0.0 -1.26872e-05
					CHANNELS 6 Xposition Yposition Zposition Zrotation Xrotation Yrotation 
					JOINT Toes_L
					{
						OFFSET 11.7543 0.0 0.0
						CHANNELS 6 Xposition Yposition Zposition Zrotation Xrotation Yrotation 
						End Site
						{
							OFFSET 0.0 0.0 0.0
						}
					}
				}
			}
		}
		JOINT UpperLeg_R
		{
			OFFSET -2.19251 6.46944 0.0
			CHANNELS 6 Xposition Yposition Zposition Zrotation Xrotation Yrotation 
			JOINT LowerLeg_R
			{
				OFFSET -39.0811 -0.00228153 -0.0401928
				CHANNELS 6 Xposition Yposition Zposition Zrotation Xrotation Yrotation 
				JOINT Foot_R
				{
					OFFSET -40.9854 0.0 0.0
					CHANNELS 6 Xposition Yposition Zposition Zrotation Xrotation Yrotation 
					JOINT Toes_R
					{
						OFFSET -11.7543 0.0 0.0
						CHANNELS 6 Xposition Yposition Zposition Zrotation Xrotation Yrotation 
						End Site
						{
							OFFSET 0.0 0.0 0.0
						}
					}
				}
			}
		}
	}
}
MOTION
Frames:	4
Frame Time:	0.0333333
0.000000 0.000000 0.000000 0.000000 0.000000 -0.000000 -0.873733 92.908900 1.713070 87.520600 -3.088390 1.415630 15.735700 0.000005 -0.000001 94.656800 87.408900 -90.082600 8.984550 -0.406207 -0.000000 -2.584770 0.007993 9.148630 16.377300 -0.000001 -0.000001 -1.258090 2.325260 4.527970 6.456720 -0.000001 -0.000000 6.313280 5.010930 27.151800 12.994200 -0.242716 4.980390 -87.604500 -4.923010 -64.012100 5.348090 -0.000007 -0.000001 -57.189300 -60.396300 -85.010200 24.328600 0.000019 0.000005 0.000646 -6.662590 0.000001 22.291600 -0.000001 0.000005 36.071800 3.518200 30.709900 12.994500 -0.242716 -4.980390 88.912200 3.646440 -73.377100 -5.348130 -0.000001 -0.000004 -66.750900 5.189170 0.814158 -24.328900 0.000322 -0.000009 0.880924 4.023550 -12.374700 -22.291500 -0.000108 -0.000004 7.225330 5.218240 2.257760 -2.192480 -6.469440 -0.000000 -172.212000 -6.620650 1.574600 39.081100 -0.000007 -0.000012 0.017843 -0.066115 15.103800 40.985400 -0.000006 -0.000013 -1.305560 12.372300 -70.160100 11.754300 -0.000000 0.000003 -0.000798 0.180122 -9.270360 -2.192510 6.469440 -0.000001 177.554000 1.874160 -177.426000 -39.081100 -0.002282 -0.040193 0.008272 -0.024619 11.336700 -40.985400 0.000008 0.000006 -6.023630 7.870200 -67.635300 -11.754300 -0.000006 -0.000006 -0.010341 0.273839 -5.447330
0.000000 0.000000 0.000000 0.000000 0.000000 -0.000000 -0.862668 92.909400 1.732490 87.504800 -2.895430 1.460550 15.735700 0.000005 -0.000001 95.875500 87.468300 -91.369300 8.984550 -0.406207 -0.000000 -2.717500 0.106442 9.015200 16.377300 -0.000001 -0.000001 -0.899301 2.792590 3.968970 6.456720 -0.000001 -0.000000 6.385470 5.219490 26.999100 12.994200 -0.242716 4.980390 -87.473700 -5.122840 -63.705100 5.348090 -0.000007 -0.000001 -57.563000 -60.344600 -90.661000 24.328600 0.000019 0.000005 -0.032962 -3.638760 -0.527229 22.291600 -0.000001 0.000005 35.124100 3.791920 27.106300 12.994500 -0.242716 -4.980390 88.950300 3.534040 -73.445500 -5.348130 -0.000001 -0.000004 -66.947400 4.751020 1.134140 -24.328900 0.000322 -0.000009 0.908818 4.338300 -11.856800 -22.291500 -0.000108 -0.000004 7.294840 5.207820 2.522470 -2.192480 -6.469440 -0.000000 -172.207000 -6.455760 1.567700 39.081100 -0.000007 -0.000012 0.019530 -0.072130 15.150100 40.985400 -0.000006 -0.000013 -1.286690 12.405300 -70.205200 11.754300 -0.000000 0.000003 -0.001026 0.183401 -9.137140 -2.192510 6.469440 -0.000001 177.513000 2.243280 -177.290000 -39.081100 -0.002282 -0.040193 0.006940 -0.018137 11.235100 -40.985400 0.000008 0.000006 -6.095600 8.052890 -67.605400 -11.754300 -0.000006 -0.000006 -0.010802 0.277204 -5.309660
0.000000 0.000000 0.000000 0.000000 0.000000 -0.000000 -0.802336 92.889200 1.767990 87.538100 -2.767130 1.647260 15.735700 0.000005 -0.000001 96.687400 87.463000 -92.229400 8.984550 -0.406207 -0.000000 -2.718110 0.183332 8.920710 16.377300 -0.000001 -0.000001 -0.548444 3.279750 3.417600 6.456720 -0.000001 -0.000000 6.429160 5.448410 26.816400 12.994200 -0.242716 4.980390 -87.437300 -5.184770 -63.651300 5.348090 -0.000007 -0.000001 -56.754900 -60.700000 -94.873000 24.328600 0.000019 0.000005 -0.120563 -1.449540 -4.789050 22.291600 -0.000001 0.000005 34.156000 4.039100 23.663900 12.994500 -0.242716 -4.980390 88.969100 3.486170 -73.515600 -5.348130 -0.000001 -0.000004 -67.036800 4.549050 1.109940 -24.328900 0.000322 -0.000009 0.897006 4.479420 -11.348600 -22.291500 -0.000108 -0.000004 7.445960 5.197790 2.774650 -2.192480 -6.469440 -0.000000 -172.271000 -6.335980 1.653640 39.081100 -0.000007 -0.000012 0.020944 -0.076389 15.332500 40.985400 -0.000006 -0.000013 -1.221010 12.382300 -70.244100 11.754300 -0.000000 0.000003 -0.000941 0.182189 -9.186360 -2.192510 6.469440 -0.000001 177.414000 2.485630 -177.127000 -39.081100 -0.002282 -0.040193 0.006841 -0.017426 11.371700 -40.985400 0.000008 0.000006 -6.062290 8.196140 -67.642100 -11.754300 -0.000006 -0.000006 -0.010545 0.275336 -5.386070
0.000000 0.000000 0.000000 0.000000 0.000000 -0.000000 -0.714250 92.884300 1.781360 87.579500 -2.683710 1.882900 15.735700 0.000005 -0.000001 96.043600 87.434100 -91.600400 8.984550 -0.406207 -0.000000 -2.652580 0.136665 8.889710 16.377300 -0.000001 -0.000001 -0.265394 3.752040 2.893170 6.456720 -0.000001 -0.000000 6.524060 5.728340 26.724400 12.994200 -0.242716 4.980390 -87.456800 -5.175920 -63.787200 5.348090 -0.000007 -0.000001 -57.209600 -61.331400 -99.329300 24.328600 0.000019 0.000005 0.232291 1.253130 -10.438000 22.291600 -0.000001 0.000005 32.633700 4.277780 20.124900 12.994500 -0.242716 -4.980390 88.947600 3.578060 -73.597600 -5.348130 -0.000001 -0.000004 -66.945700 4.710240 0.748613 -24.328900 0.000322 -0.000009 0.897088 4.615200 -11.024800 -22.291500 -0.000108 -0.000004 7.573380 5.190580 2.954350 -2.192480 -6.469440 -0.000000 -172.377000 -6.034200 1.860690 39.081100 -0.000007 -0.000012 0.022783 -0.082867 15.373100 40.985400 -0.000006 -0.000013 -1.174370 12.228600 -70.286800 11.754300 -0.000000 0.000003 -0.001031 0.183475 -9.134130 -2.192510 6.469440 -0.000001 177.283000 2.627750 -176.853000 -39.081100 -0.002282 -0.040193 0.005966 -0.013101 11.347100 -40.985400 0.000008 0.000006 -6.076580 8.256600 -67.689100 -11.754300 -0.000006 -0.000006 -0.010712 0.276552 -5.336350
